<svg width="30" height="24" viewBox="0 0 30 24" fill="none" xmlns="http://www.w3.org/2000/svg">
<g clip-path="url(#clip0_407_4841)" filter="url(#filter0_d_407_4841)">
<path d="M4.3335 0H25.6668V16H4.3335V0Z" fill="#00008B"/>
<path d="M5.5835 0L9.65016 3.01667L13.7002 0H15.0002V1.03333L11.0002 4.01667L15.0002 6.98333V8H13.6668L9.66683 5.01667L5.6835 8H4.3335V7L8.31683 4.03333L4.3335 1.06667V0H5.5835Z" fill="white"/>
<path d="M11.4002 4.68333L15.0002 7.33333V8L10.4835 4.68333H11.4002ZM8.3335 5.01667L8.4335 5.6L5.2335 8H4.3335L8.3335 5.01667ZM15.0002 0V0.05L10.8502 3.18333L10.8835 2.45L14.1668 0H15.0002ZM4.3335 0L8.31683 2.93333H7.31683L4.3335 0.7V0Z" fill="#FF0000"/>
<path d="M8.35016 0V8H11.0168V0H8.35016ZM4.3335 2.66667V5.33333H15.0002V2.66667H4.3335Z" fill="white"/>
<path d="M4.3335 3.21667V4.81667H15.0002V3.21667H4.3335ZM8.8835 0V8H10.4835V0H8.8835Z" fill="#FF0000"/>
<path d="M21.9003 13.2231L21.2169 13.3098L21.2903 13.9931L20.7969 13.5131L20.3069 13.9965L20.3736 13.3131L19.6903 13.2331L20.2669 12.8598L19.9036 12.2765L20.5569 12.4931L20.7869 11.8431L21.0236 12.4898L21.6736 12.2665L21.3169 12.8531L21.8969 13.2231H21.9003ZM21.7769 9.31645L21.8669 8.88312L21.5403 8.58312L21.9803 8.53312L22.1636 8.12979L22.3469 8.53312L22.7869 8.58312L22.4603 8.88312L22.5503 9.31645L22.1636 9.09645L21.7769 9.31645ZM18.3069 7.31645L17.6303 7.38978L17.6903 8.06645L17.2103 7.58312L16.7169 8.05312L16.7969 7.37645L16.1236 7.28645L16.7003 6.92645L16.3503 6.34312L16.9936 6.56979L17.2336 5.93312L17.4569 6.57645L18.1036 6.36645L17.7403 6.94312L18.3103 7.31645H18.3069ZM25.1003 6.22312L24.4036 6.31312L24.4803 7.00979L23.9769 6.51979L23.4769 7.01312L23.5469 6.31312L22.8503 6.23312L23.4403 5.84979L23.0703 5.25312L23.7369 5.47645L23.9703 4.81645L24.2103 5.47645L24.8736 5.24645L24.5069 5.84645L25.1003 6.22312ZM21.8969 3.43979L21.2069 3.51645L21.2703 4.20979L20.7803 3.71645L20.2769 4.19645L20.3569 3.50645L19.6669 3.41312L20.2569 3.04645L19.9003 2.44979L20.5569 2.67979L20.8003 2.02979L21.0269 2.68645L21.6869 2.46979L21.3169 3.05645L21.8969 3.43979ZM12.1336 12.8565L10.6069 13.0365L10.7603 14.5665L9.66695 13.4865L8.56695 14.5598L8.73028 13.0298L7.20361 12.8365L8.50028 12.0098L7.70028 10.6965L9.15361 11.1965L9.68028 9.74979L10.1969 11.1998L11.6536 10.7098L10.8436 12.0165L12.1369 12.8531L12.1336 12.8565Z" fill="white"/>
</g>
<defs>
<filter id="filter0_d_407_4841" x="0.333496" y="0" width="29.3335" height="24" filterUnits="userSpaceOnUse" color-interpolation-filters="sRGB">
<feFlood flood-opacity="0" result="BackgroundImageFix"/>
<feColorMatrix in="SourceAlpha" type="matrix" values="0 0 0 0 0 0 0 0 0 0 0 0 0 0 0 0 0 0 127 0" result="hardAlpha"/>
<feOffset dy="4"/>
<feGaussianBlur stdDeviation="2"/>
<feComposite in2="hardAlpha" operator="out"/>
<feColorMatrix type="matrix" values="0 0 0 0 0 0 0 0 0 0 0 0 0 0 0 0 0 0 0.25 0"/>
<feBlend mode="normal" in2="BackgroundImageFix" result="effect1_dropShadow_407_4841"/>
<feBlend mode="normal" in="SourceGraphic" in2="effect1_dropShadow_407_4841" result="shape"/>
</filter>
<clipPath id="clip0_407_4841">
<rect width="21.3333" height="16" fill="white" transform="translate(4.3335)"/>
</clipPath>
</defs>
</svg>
