<svg width="30" height="24" viewBox="0 0 30 24" fill="none" xmlns="http://www.w3.org/2000/svg">
<g clip-path="url(#clip0_407_4868)" filter="url(#filter0_d_407_4868)">
<path d="M4 0H25.3333V5.33333H4V0Z" fill="#FF9933"/>
<path d="M4 5.3335H25.3333V10.6668H4V5.3335Z" fill="white"/>
<path d="M4 10.6665H25.3333V15.9998H4V10.6665Z" fill="#128807"/>
<path d="M14.667 10.1334C15.8452 10.1334 16.8004 9.17824 16.8004 8.00003C16.8004 6.82183 15.8452 5.8667 14.667 5.8667C13.4888 5.8667 12.5337 6.82183 12.5337 8.00003C12.5337 9.17824 13.4888 10.1334 14.667 10.1334Z" fill="#000088"/>
<path d="M14.667 9.86663C15.6979 9.86663 16.5336 9.0309 16.5336 7.99997C16.5336 6.96904 15.6979 6.1333 14.667 6.1333C13.636 6.1333 12.8003 6.96904 12.8003 7.99997C12.8003 9.0309 13.636 9.86663 14.667 9.86663Z" fill="white"/>
<path d="M14.6668 8.37313C14.873 8.37313 15.0401 8.20598 15.0401 7.9998C15.0401 7.79361 14.873 7.62646 14.6668 7.62646C14.4606 7.62646 14.2935 7.79361 14.2935 7.9998C14.2935 8.20598 14.4606 8.37313 14.6668 8.37313Z" fill="#000088"/>
<path d="M16.5052 8.33961C16.5577 8.34653 16.606 8.30952 16.6129 8.25696C16.6198 8.20439 16.5828 8.15617 16.5302 8.14925C16.4777 8.14233 16.4294 8.17933 16.4225 8.2319C16.4156 8.28446 16.4526 8.33269 16.5052 8.33961Z" fill="#000088"/>
<path d="M14.667 9.86671L14.731 8.74671L14.667 8.21338L14.603 8.74671L14.667 9.86671Z" fill="#000088"/>
<path d="M16.3546 8.80397C16.4036 8.82426 16.4597 8.80099 16.48 8.75201C16.5003 8.70303 16.477 8.64687 16.428 8.62658C16.3791 8.60629 16.3229 8.62955 16.3026 8.67854C16.2823 8.72752 16.3056 8.78368 16.3546 8.80397Z" fill="#000088"/>
<path d="M14.1837 9.8035L14.5354 8.73823L14.6116 8.20651L14.4118 8.7051L14.1837 9.8035Z" fill="#000088"/>
<path d="M16.0887 9.21321C16.1307 9.24548 16.191 9.23755 16.2233 9.19549C16.2556 9.15342 16.2476 9.09316 16.2056 9.06088C16.1635 9.02861 16.1032 9.03654 16.071 9.0786C16.0387 9.12067 16.0466 9.18093 16.0887 9.21321Z" fill="#000088"/>
<path d="M13.7332 9.61666L14.3486 8.67871L14.5598 8.18483L14.2377 8.61471L13.7332 9.61666Z" fill="#000088"/>
<path d="M15.7264 9.54021C15.7587 9.58228 15.819 9.59021 15.861 9.55793C15.9031 9.52566 15.911 9.46539 15.8788 9.42333C15.8465 9.38127 15.7862 9.37333 15.7442 9.40561C15.7021 9.43789 15.6942 9.49815 15.7264 9.54021Z" fill="#000088"/>
<path d="M13.3469 9.3203L14.1841 8.57359L14.516 8.15121L14.0936 8.48308L13.3469 9.3203Z" fill="#000088"/>
<path d="M15.292 9.76178C15.3123 9.81076 15.3684 9.83402 15.4174 9.81373C15.4664 9.79344 15.4896 9.73729 15.4694 9.6883C15.4491 9.63932 15.3929 9.61606 15.3439 9.63635C15.2949 9.65664 15.2717 9.71279 15.292 9.76178Z" fill="#000088"/>
<path d="M13.0504 8.93385L14.0523 8.42928L14.4822 8.10718L13.9883 8.31842L13.0504 8.93385Z" fill="#000088"/>
<path d="M14.8148 9.8634C14.8218 9.91597 14.87 9.95297 14.9226 9.94605C14.9751 9.93913 15.0121 9.89091 15.0052 9.83834C14.9983 9.78578 14.9501 9.74877 14.8975 9.75569C14.8449 9.76261 14.8079 9.81084 14.8148 9.8634Z" fill="#000088"/>
<path d="M12.8639 8.48339L13.9623 8.25533L14.4609 8.05547L13.9292 8.13169L12.8639 8.48339Z" fill="#000088"/>
<path d="M14.3279 9.83818C14.321 9.89075 14.358 9.93897 14.4105 9.94589C14.4631 9.95281 14.5113 9.91581 14.5182 9.86325C14.5252 9.81068 14.4881 9.76246 14.4356 9.75554C14.383 9.74862 14.3348 9.78562 14.3279 9.83818Z" fill="#000088"/>
<path d="M12.8008 8.00004L13.9208 8.06404L14.4541 8.00004L13.9208 7.93604L12.8008 8.00004Z" fill="#000088"/>
<path d="M13.8635 9.68758C13.8432 9.73656 13.8665 9.79272 13.9155 9.81301C13.9645 9.8333 14.0206 9.81004 14.0409 9.76106C14.0612 9.71207 14.0379 9.65592 13.9889 9.63563C13.94 9.61534 13.8838 9.6386 13.8635 9.68758Z" fill="#000088"/>
<path d="M12.864 7.51672L13.9292 7.86841L14.461 7.94463L13.9624 7.74478L12.864 7.51672Z" fill="#000088"/>
<path d="M13.4538 9.42168C13.4215 9.46375 13.4294 9.52401 13.4715 9.55629C13.5136 9.58856 13.5738 9.58063 13.6061 9.53856C13.6384 9.4965 13.6305 9.43624 13.5884 9.40396C13.5463 9.37169 13.4861 9.37962 13.4538 9.42168Z" fill="#000088"/>
<path d="M13.0503 7.06616L13.9883 7.68159L14.4822 7.89283L14.0523 7.57074L13.0503 7.06616Z" fill="#000088"/>
<path d="M13.1268 9.05944C13.0847 9.09171 13.0768 9.15198 13.1091 9.19404C13.1413 9.2361 13.2016 9.24404 13.2437 9.21176C13.2857 9.17949 13.2937 9.11922 13.2614 9.07716C13.2291 9.0351 13.1688 9.02716 13.1268 9.05944Z" fill="#000088"/>
<path d="M13.3467 6.67988L14.0934 7.5171L14.5158 7.84897L14.1839 7.42659L13.3467 6.67988Z" fill="#000088"/>
<path d="M12.9052 8.62498C12.8562 8.64527 12.833 8.70142 12.8533 8.75041C12.8735 8.79939 12.9297 8.82265 12.9787 8.80236C13.0277 8.78207 13.0509 8.72592 13.0306 8.67693C13.0104 8.62795 12.9542 8.60469 12.9052 8.62498Z" fill="#000088"/>
<path d="M13.7331 6.38337L14.2377 7.38532L14.5598 7.8152L14.3486 7.32132L13.7331 6.38337Z" fill="#000088"/>
<path d="M12.8036 8.14786C12.751 8.15478 12.714 8.203 12.7209 8.25557C12.7279 8.30813 12.7761 8.34513 12.8286 8.33821C12.8812 8.33129 12.9182 8.28307 12.9113 8.2305C12.9044 8.17794 12.8562 8.14094 12.8036 8.14786Z" fill="#000088"/>
<path d="M14.1836 6.19691L14.4117 7.29531L14.6115 7.79391L14.5353 7.26218L14.1836 6.19691Z" fill="#000088"/>
<path d="M12.8288 7.66039C12.7762 7.65347 12.728 7.69048 12.7211 7.74304C12.7142 7.79561 12.7512 7.84383 12.8037 7.85075C12.8563 7.85767 12.9045 7.82067 12.9115 7.7681C12.9184 7.71554 12.8814 7.66731 12.8288 7.66039Z" fill="#000088"/>
<path d="M14.667 6.13329L14.603 7.25329L14.667 7.78662L14.731 7.25329L14.667 6.13329Z" fill="#000088"/>
<path d="M12.9794 7.19603C12.9304 7.17574 12.8743 7.19901 12.854 7.24799C12.8337 7.29697 12.857 7.35313 12.9059 7.37342C12.9549 7.39371 13.0111 7.37045 13.0314 7.32146C13.0517 7.27248 13.0284 7.21632 12.9794 7.19603Z" fill="#000088"/>
<path d="M15.1503 6.1965L14.7986 7.26177L14.7224 7.79349L14.9222 7.2949L15.1503 6.1965Z" fill="#000088"/>
<path d="M13.2453 6.78679C13.2032 6.75452 13.143 6.76245 13.1107 6.80451C13.0784 6.84658 13.0864 6.90684 13.1284 6.93912C13.1705 6.97139 13.2308 6.96346 13.263 6.9214C13.2953 6.87933 13.2874 6.81907 13.2453 6.78679Z" fill="#000088"/>
<path d="M15.6008 6.38334L14.9854 7.32129L14.7742 7.81517L15.0963 7.38529L15.6008 6.38334Z" fill="#000088"/>
<path d="M13.6076 6.45979C13.5753 6.41772 13.515 6.40979 13.473 6.44207C13.4309 6.47434 13.423 6.53461 13.4552 6.57667C13.4875 6.61873 13.5478 6.62667 13.5898 6.59439C13.6319 6.56211 13.6398 6.50185 13.6076 6.45979Z" fill="#000088"/>
<path d="M15.9871 6.6797L15.1499 7.42641L14.818 7.84879L15.2404 7.51692L15.9871 6.6797Z" fill="#000088"/>
<path d="M14.042 6.23822C14.0217 6.18924 13.9656 6.16598 13.9166 6.18627C13.8676 6.20656 13.8443 6.26271 13.8646 6.3117C13.8849 6.36068 13.9411 6.38394 13.9901 6.36365C14.039 6.34336 14.0623 6.28721 14.042 6.23822Z" fill="#000088"/>
<path d="M16.2836 7.06615L15.2817 7.57072L14.8518 7.89282L15.3457 7.68158L16.2836 7.06615Z" fill="#000088"/>
<path d="M14.5191 6.1366C14.5122 6.08403 14.464 6.04703 14.4114 6.05395C14.3589 6.06087 14.3219 6.10909 14.3288 6.16166C14.3357 6.21422 14.3839 6.25123 14.4365 6.24431C14.4891 6.23739 14.5261 6.18916 14.5191 6.1366Z" fill="#000088"/>
<path d="M16.4701 7.51661L15.3717 7.74467L14.8731 7.94453L15.4048 7.86831L16.4701 7.51661Z" fill="#000088"/>
<path d="M15.0061 6.16182C15.013 6.10925 14.976 6.06103 14.9235 6.05411C14.8709 6.04719 14.8227 6.08419 14.8158 6.13675C14.8088 6.18932 14.8458 6.23754 14.8984 6.24446C14.951 6.25138 14.9992 6.21438 15.0061 6.16182Z" fill="#000088"/>
<path d="M16.5332 7.99996L15.4132 7.93596L14.8799 7.99996L15.4132 8.06396L16.5332 7.99996Z" fill="#000088"/>
<path d="M15.4705 6.31242C15.4908 6.26344 15.4675 6.20728 15.4185 6.18699C15.3695 6.1667 15.3134 6.18996 15.2931 6.23894C15.2728 6.28793 15.2961 6.34408 15.345 6.36437C15.394 6.38466 15.4502 6.3614 15.4705 6.31242Z" fill="#000088"/>
<path d="M16.47 8.48328L15.4047 8.13159L14.873 8.05537L15.3716 8.25522L16.47 8.48328Z" fill="#000088"/>
<path d="M15.8802 6.57783C15.9125 6.53577 15.9045 6.4755 15.8625 6.44323C15.8204 6.41095 15.7602 6.41888 15.7279 6.46095C15.6956 6.50301 15.7035 6.56327 15.7456 6.59555C15.7877 6.62783 15.8479 6.61989 15.8802 6.57783Z" fill="#000088"/>
<path d="M16.2837 8.93335L15.3457 8.31792L14.8518 8.10668L15.2817 8.42878L16.2837 8.93335Z" fill="#000088"/>
<path d="M16.2072 6.94007C16.2493 6.9078 16.2572 6.84753 16.2249 6.80547C16.1926 6.76341 16.1324 6.75547 16.0903 6.78775C16.0483 6.82003 16.0403 6.88029 16.0726 6.92235C16.1049 6.96442 16.1651 6.97235 16.2072 6.94007Z" fill="#000088"/>
<path d="M15.9873 9.31963L15.2406 8.48241L14.8182 8.15055L15.1501 8.57292L15.9873 9.31963Z" fill="#000088"/>
<path d="M16.4288 7.37453C16.4778 7.35424 16.501 7.29809 16.4807 7.2491C16.4604 7.20012 16.4043 7.17686 16.3553 7.19715C16.3063 7.21744 16.283 7.2736 16.3033 7.32258C16.3236 7.37156 16.3798 7.39482 16.4288 7.37453Z" fill="#000088"/>
<path d="M15.6008 9.61614L15.0963 8.61419L14.7742 8.18431L14.9854 8.67819L15.6008 9.61614Z" fill="#000088"/>
<path d="M16.5304 7.85165C16.583 7.84473 16.62 7.79651 16.613 7.74395C16.6061 7.69138 16.5579 7.65438 16.5053 7.6613C16.4528 7.66822 16.4158 7.71644 16.4227 7.76901C16.4296 7.82157 16.4778 7.85858 16.5304 7.85165Z" fill="#000088"/>
<path d="M15.1504 9.8026L14.9223 8.7042L14.7225 8.2056L14.7987 8.73733L15.1504 9.8026Z" fill="#000088"/>
</g>
<defs>
<filter id="filter0_d_407_4868" x="0" y="0" width="29.3335" height="24" filterUnits="userSpaceOnUse" color-interpolation-filters="sRGB">
<feFlood flood-opacity="0" result="BackgroundImageFix"/>
<feColorMatrix in="SourceAlpha" type="matrix" values="0 0 0 0 0 0 0 0 0 0 0 0 0 0 0 0 0 0 127 0" result="hardAlpha"/>
<feOffset dy="4"/>
<feGaussianBlur stdDeviation="2"/>
<feComposite in2="hardAlpha" operator="out"/>
<feColorMatrix type="matrix" values="0 0 0 0 0 0 0 0 0 0 0 0 0 0 0 0 0 0 0.25 0"/>
<feBlend mode="normal" in2="BackgroundImageFix" result="effect1_dropShadow_407_4868"/>
<feBlend mode="normal" in="SourceGraphic" in2="effect1_dropShadow_407_4868" result="shape"/>
</filter>
<clipPath id="clip0_407_4868">
<rect width="21.3333" height="16" fill="white" transform="translate(4)"/>
</clipPath>
</defs>
</svg>
